<svg width="56" height="56" viewBox="0 0 56 56" fill="none" xmlns="http://www.w3.org/2000/svg">
<path d="M28 0C12.5608 0 0 12.5608 0 28C0 43.4392 12.5608 56 28 56C43.4392 56 56 43.4392 56 28C56 12.5608 43.4392 0 28 0ZM37.7804 19.6C38.3387 19.5857 38.8941 19.6834 39.4141 19.8872C39.934 20.0911 40.4078 20.397 40.8077 20.7868C41.2075 21.1767 41.5252 21.6427 41.7421 22.1573C41.959 22.6719 42.0706 23.2248 42.0704 23.7832C42.0702 24.3417 41.9582 24.8945 41.741 25.4089C41.5238 25.9234 41.2058 26.3892 40.8057 26.7788C40.4056 27.1684 39.9315 27.474 39.4115 27.6775C38.8914 27.8809 38.3359 27.9782 37.7776 27.9636C36.6873 27.935 35.6512 27.4817 34.8902 26.7003C34.1293 25.9189 33.7036 24.8711 33.704 23.7804C33.7044 22.6897 34.1307 21.6423 34.8922 20.8614C35.6537 20.0805 36.69 19.6278 37.7804 19.6ZM18.2 19.6C18.7517 19.6002 19.298 19.709 19.8077 19.9203C20.3174 20.1317 20.7804 20.4413 21.1704 20.8316C21.5604 21.2218 21.8698 21.6851 22.0807 22.1949C22.2917 22.7047 22.4002 23.2511 22.4 23.8028C22.3998 24.3545 22.291 24.9008 22.0797 25.4105C21.8683 25.9202 21.5587 26.3832 21.1684 26.7732C20.7782 27.1632 20.3149 27.4726 19.8051 27.6835C19.2953 27.8945 18.7489 28.003 18.1972 28.0028C17.0829 28.0024 16.0144 27.5594 15.2268 26.7712C14.4391 25.9831 13.9968 24.9143 13.9972 23.8C13.9976 22.6857 14.4406 21.6172 15.2288 20.8296C16.0169 20.0419 17.0857 19.5996 18.2 19.6ZM28 44.8C16.8 44.8 14 33.6 14 33.6H42C42 33.6 39.2 44.8 28 44.8Z" fill="#F13553"/>
</svg>
