<svg width="25" height="24" viewBox="0 0 25 24" fill="none" xmlns="http://www.w3.org/2000/svg">
<path d="M23.7088 12.3888L12.9009 0.380076C12.4458 -0.126692 11.5716 -0.126692 11.1164 0.380076L0.308604 12.3888C0.153039 12.5612 0.0509271 12.7751 0.0146843 13.0045C-0.0215585 13.2339 0.00962948 13.4689 0.104456 13.6809C0.296595 14.1144 0.726507 14.393 1.20085 14.393H3.60259V22.7991C3.60259 23.1176 3.72911 23.4231 3.95432 23.6483C4.17953 23.8735 4.48497 24 4.80346 24H8.40607C8.72457 24 9.03001 23.8735 9.25522 23.6483C9.48043 23.4231 9.60695 23.1176 9.60695 22.7991V17.9956H14.4104V22.7991C14.4104 23.1176 14.5369 23.4231 14.7622 23.6483C14.9874 23.8735 15.2928 24 15.6113 24H19.2139C19.5324 24 19.8378 23.8735 20.0631 23.6483C20.2883 23.4231 20.4148 23.1176 20.4148 22.7991V14.393H22.8165C23.0491 14.394 23.2769 14.3273 23.4722 14.2011C23.6676 14.0748 23.8219 13.8945 23.9165 13.682C24.0111 13.4695 24.0418 13.2341 24.0049 13.0045C23.968 12.7749 23.8651 12.5609 23.7088 12.3888Z" fill="#929292"/>
</svg>
