<svg width="24" height="24" viewBox="0 0 24 24" fill="none" xmlns="http://www.w3.org/2000/svg">
<path d="M1.3913 23.0725C1.3913 23.5855 1.8058 24 2.31884 24H10.6087V13.1014H1.3913V23.0725ZM12.5797 24H20.8696C21.3826 24 21.7971 23.5855 21.7971 23.0725V13.1014H12.5797V24ZM22.2609 6.14493H17.9826C18.3768 5.52464 18.6087 4.78841 18.6087 4C18.6087 1.7942 16.8145 0 14.6087 0C13.4087 0 12.3275 0.533333 11.5942 1.37391C10.8609 0.533333 9.77971 0 8.57971 0C6.37391 0 4.57971 1.7942 4.57971 4C4.57971 4.78841 4.8087 5.52464 5.2058 6.14493H0.927536C0.414493 6.14493 0 6.55942 0 7.07246V11.1304H10.6087V6.14493H12.5797V11.1304H23.1884V7.07246C23.1884 6.55942 22.7739 6.14493 22.2609 6.14493ZM10.6087 6.02899H8.57971C7.46087 6.02899 6.55072 5.11884 6.55072 4C6.55072 2.88116 7.46087 1.97101 8.57971 1.97101C9.69855 1.97101 10.6087 2.88116 10.6087 4V6.02899ZM14.6087 6.02899H12.5797V4C12.5797 2.88116 13.4899 1.97101 14.6087 1.97101C15.7275 1.97101 16.6377 2.88116 16.6377 4C16.6377 5.11884 15.7275 6.02899 14.6087 6.02899Z" fill="#929292"/>
</svg>
