<svg width="24" height="24" viewBox="0 0 24 24" fill="none" xmlns="http://www.w3.org/2000/svg">
<path d="M8.41932 22.1104C8.51084 22.2096 8.55951 22.3409 8.55474 22.4758C8.54998 22.6107 8.49217 22.7383 8.39389 22.8308L7.28883 23.8641C7.19016 23.9558 7.05913 24.0045 6.92452 23.9997C6.78992 23.9948 6.66275 23.9367 6.57095 23.8381L0.135493 16.9026C0.0440407 16.8033 -0.00453389 16.6719 0.000324707 16.537C0.0051833 16.4021 0.0630825 16.2746 0.16144 16.1821L1.26802 15.1503C1.31685 15.1049 1.37416 15.0695 1.43667 15.0462C1.49918 15.0229 1.56567 15.0122 1.63234 15.0146C1.699 15.017 1.76454 15.0325 1.82521 15.0602C1.88588 15.088 1.94048 15.1274 1.9859 15.1763L8.41932 22.1104ZM16.6309 9.06034C16.7224 9.15963 16.7709 9.29099 16.7661 9.42589C16.7612 9.56079 16.7033 9.68832 16.605 9.78076L9.65005 16.2778C9.55137 16.3695 9.42034 16.4182 9.28574 16.4134C9.15113 16.4085 9.02397 16.3504 8.93217 16.2518L7.27204 14.4605C7.18059 14.3612 7.13202 14.2298 7.13687 14.0949C7.14173 13.96 7.19963 13.8325 7.29799 13.74L14.2514 7.24301C14.3002 7.19757 14.3574 7.16219 14.4199 7.1389C14.4824 7.11561 14.5488 7.10486 14.6154 7.10727C14.6821 7.10968 14.7476 7.1252 14.8082 7.15294C14.8688 7.18069 14.9234 7.22011 14.9688 7.26896L16.6309 9.06034ZM10.7856 19.8987C10.9759 20.1038 10.9642 20.4278 10.7597 20.6191L9.6531 21.6519C9.60427 21.6974 9.54696 21.7328 9.48445 21.7561C9.42194 21.7794 9.35545 21.7901 9.28878 21.7877C9.22211 21.7853 9.15657 21.7698 9.09591 21.7421C9.03524 21.7143 8.98064 21.6749 8.93522 21.626L2.50332 14.6904C2.4118 14.5912 2.36314 14.4599 2.3679 14.325C2.37267 14.1901 2.43047 14.0625 2.52876 13.97L3.6333 12.9377C3.73198 12.846 3.86301 12.7973 3.99761 12.8021C4.13221 12.807 4.25938 12.8651 4.35118 12.9636L10.7856 19.8987ZM21.5019 9.30913C21.5933 9.40848 21.6418 9.53989 21.6368 9.67478C21.6319 9.80968 21.5739 9.93717 21.4754 10.0296L20.3694 11.0624C20.2707 11.1541 20.1396 11.203 20.0049 11.1982C19.8702 11.1935 19.7429 11.1354 19.651 11.0369L13.2181 4.10287C13.1264 4.00371 13.0777 3.87235 13.0824 3.73742C13.0872 3.60248 13.1451 3.47489 13.2435 3.38244L14.3526 2.34709C14.4014 2.30165 14.4587 2.26627 14.5211 2.24298C14.5836 2.21969 14.6501 2.20894 14.7167 2.21135C14.7833 2.21376 14.8488 2.22928 14.9094 2.25703C14.9701 2.28477 15.0246 2.32419 15.07 2.37304L21.5019 9.30913ZM23.8646 7.10106C23.956 7.20049 24.0045 7.33191 23.9996 7.46685C23.9948 7.60179 23.937 7.72939 23.8387 7.82199L22.7347 8.85429C22.6859 8.89976 22.6287 8.93518 22.5662 8.95851C22.5038 8.98185 22.4373 8.99264 22.3707 8.99028C22.3041 8.98792 22.2386 8.97244 22.1779 8.94474C22.1173 8.91704 22.0627 8.87766 22.0173 8.82885L15.5854 1.89174C15.494 1.79238 15.4454 1.66099 15.4501 1.52605C15.4549 1.39111 15.5126 1.26348 15.6108 1.17081L16.7159 0.136476C16.7646 0.0909564 16.8217 0.0554967 16.8842 0.0321313C16.9466 0.00876603 17.013 -0.00204504 17.0796 0.000318454C17.1462 0.00268195 17.2117 0.0181735 17.2723 0.0459042C17.3329 0.0736349 17.3874 0.113059 17.4327 0.161914L23.8646 7.10106Z" fill="#929292"/>
</svg>
