<svg xmlns="http://www.w3.org/2000/svg" width="600.299" height="207.069" viewBox="0 0 15302.31 5278.4" shape-rendering="geometricPrecision" image-rendering="optimizeQuality" fill-rule="evenodd" xmlns:v="https://vecta.io/nano"><path d="M3722.42 1636.2s-565.15-382.5-1227.45 25.34l-59.57 33.19c-172.71 96.14-382.52 96.14-555.19 0l-59.57-33.19c-662.33-407.84-1227.46-25.34-1227.46-25.34-1020.53 672.78-414.63 2156.52-414.63 2156.52 458.27 1053.17 1096.8 1371.13 1397.25 1465.2 96.17 30.04 199.36 26.9 293.43-8.64l141.6-53.55c94.84-35.8 199.08-35.8 293.93 0l141.62 53.55c94.05 35.54 197.26 38.68 293.13 8.64 300.72-94.07 939.28-412.04 1397.52-1465.2 0 0 605.9-1483.74-414.61-2156.52zm-1460.76-65.84c16.46 2.36 35.26-3.64 42.58-19.07 253.69-529.6 750.63-595.44 859.59-635.67 26.9-9.93 53.28-20.9 78.1-35 176.88-101.37 176.88-270.16 151.28-383.55-15.16-67.16-83.88-107.91-149.7-88.82-919.42 268.84-1013.73 941.85-1020.28 1115.6-.77 22.99 15.42 43.12 38.42 46.51zm-306.46-55.63c39.43 12.52 80.73-12.83 87.79-53.84 45.46-263.87 135.33-1143.31-612.42-1414.24-53.57-19.34-109.22-33.71-165.38-43.38-.54 0-1.31-.26-2.11-.26-111.29-19.6-216.32 59.3-226.52 172.7-33.17 373.87 37.61 1057.35 918.63 1339.02zm5562.51 694.17l-321.47 2388.36c-3.14 23.29-13.96 43.08-32.44 59.38-18.49 16.28-39.39 24.43-62.66 24.43h-515.62c-23.28 0-46.78-6.98-70.51-20.95-23.72-13.97-40.73-30.26-52.19-48.89l-737.1-1281.49c-11.47-18.62-25-26.18-40.6-22.69-15.61 3.48-24.96 16.87-28.09 40.15l-168.27 1250.05c-3.14 23.29-13.96 43.08-32.43 59.38-18.5 16.28-39.96 24.43-63.25 24.43h-522.6c-23.27 0-42.55-8.15-56.63-24.43-14.11-16.3-19.61-36.09-16.47-59.38l321.48-2388.36c3.14-23.28 13.95-43.08 32.44-59.36 18.49-16.3 39.39-24.45 62.65-24.45h523.77c23.29 0 46.85 6.4 70.74 19.21 23.87 12.79 41.56 28.51 53.03 47.13l735.37 1281.49c11.44 18.62 24.91 26.77 40.33 24.44 15.46-2.33 24.75-15.14 27.88-38.41l168.27-1250.05c3.14-23.28 13.95-43.08 32.43-59.36 18.5-16.3 39.38-24.45 62.65-24.45h516.78c23.28 0 41.98 8.15 56.06 24.45 14.11 16.28 19.61 36.08 16.46 59.36zm335.01 3.49c3.12-23.28 13.94-43.07 32.44-59.36 18.48-16.3 38.79-24.45 62.07-24.45h524.93c23.28 0 41.37 8.15 55.48 24.45 14.1 16.29 19.58 36.08 16.46 59.36l-190.36 1414.16c-12.22 90.79-7.77 165.86 13.33 225.21 21.69 59.38 51.51 105.92 90.02 139.67 38.52 33.76 81.86 57.63 128.86 71.58 47.01 13.98 90.88 20.96 130.46 20.96 39.56 0 85.31-6.98 136.09-20.96 50.76-13.95 99.96-37.82 146.4-71.58 46.44-33.75 88.2-80.29 125.87-139.67 37.1-59.36 61.75-134.43 73.96-225.21l190.36-1414.16c3.12-23.28 13.94-43.07 32.43-59.36 18.49-16.3 38.78-24.45 62.07-24.45h524.92c23.27 0 41.38 8.15 55.48 24.45 14.1 16.29 19.59 36.08 16.47 59.36L9890.1 3626.55c-22.26 165.28-68.65 315.43-139.21 450.45-70.54 135.01-160.54 250.24-271.16 345.68s-238.12 169.35-381.94 221.73c-144.39 52.38-299.79 78.57-467.4 78.57-167.62 0-315.98-26.19-446.28-78.57-129.71-52.37-237.32-126.29-322.24-221.73-84.92-95.45-144.49-210.68-179.86-345.68-35.35-135.02-41.93-285.17-19.67-450.45l190.36-1414.16zm4164.54 555.18h-488.86c-23.27 0-44.15 8.15-62.63 24.45-18.49 16.29-29.31 36.08-32.43 59.36l-235 1745.87c-3.14 23.29-13.37 43.08-30.7 59.38-17.32 16.28-38.8 24.43-64.41 24.43h-523.76c-23.29 0-41.97-8.15-56.07-24.43-14.1-16.3-19.59-36.09-16.45-59.38l235-1745.87c3.12-23.28-1.77-43.07-14.7-59.36-12.94-16.3-32.22-24.45-57.82-24.45h-495.85c-23.28 0-41.97-8.14-56.05-24.44-14.11-16.28-19.59-36.08-16.45-59.35l63.91-474.88c3.14-23.28 13.94-43.08 32.43-59.36 18.49-16.3 39.39-24.45 62.66-24.45h1843.65c25.61 0 44.87 8.15 57.81 24.45 12.95 16.28 17.84 36.08 14.7 59.36l-63.91 474.88c-3.14 23.27-13.35 43.07-30.69 59.35-17.33 16.3-38.8 24.44-64.4 24.44zm517.27 1913.49h-522.59c-23.28 0-42.56-8.15-56.64-24.43-14.11-16.3-19.6-36.09-16.46-59.38l321.47-2388.36c3.14-23.28 13.96-43.08 32.45-59.36 18.48-16.3 39.38-24.45 62.65-24.45h1085.95c135.01 0 256.49 22.7 364.45 68.09 107.93 45.4 196.61 108.83 265.94 190.31 69.34 81.47 119.19 178.08 149.55 289.81 30.35 111.74 36.45 235.11 18.27 370.13-10.02 74.49-28.71 148.4-56.04 221.74-27.31 73.33-61.66 142.58-103.02 207.76-41.37 65.18-87.69 123.96-138.98 176.33-51.27 52.38-107.19 96.04-167.77 130.95-20.5 13.96-35 30.84-43.46 50.62-8.49 19.78-7 39 4.45 57.61l230.93 359.66 216.29 338.7c11.47 18.61 12.22 38.99 2.25 61.1-9.96 22.11-26.58 33.17-49.87 33.17h-649.47c-23.28 0-47.43-6.41-72.47-19.2-25.06-12.8-43.32-28.53-54.78-47.14l-180.61-296.8-176.18-303.78c-11.46-18.63-29.14-34.34-53.02-47.14-23.88-12.81-46.87-19.2-70.16-19.2h-76.82c-22.69 0-43.57 8.14-62.06 24.44-18.49 16.28-29.31 36.08-32.43 59.36l-76.14 565.66c-3.14 23.29-13.96 43.08-32.43 59.38-18.51 16.28-39.97 24.43-63.26 24.43zm352.79-1375.75h368.39c27.94 0 57.74-5.24 88.82-15.72 31.68-10.47 61.8-26.76 90.4-48.89 27.99-22.11 52.62-49.46 73.31-82.06 20.68-32.58 34-71 39.94-115.23 3.14-23.28 2.75-50.63-1.19-82.05-3.9-31.43-13.8-61.69-29.65-90.79-15.3-29.1-38.79-53.54-69.88-73.32-31.09-19.8-70.5-29.69-119.37-29.69h-368.39c-22.7 0-43.56 8.15-62.07 24.45-18.47 16.29-29.3 36.08-32.43 59.36l-49.82 370.13c-3.13 23.28 2.36 43.07 16.45 59.36 14.11 16.3 32.8 24.45 55.48 24.45zm1998.61 1375.75H14361c-25.02 0-44.3-8.15-57.22-24.43-12.95-16.3-17.84-36.09-14.7-59.38l321.01-2384.87c3.13-23.28 13.34-43.07 30.69-59.36 17.31-16.3 38.79-24.45 63.81-24.45h524.93c23.28 0 41.38 8.15 55.49 24.45 14.09 16.29 19.57 36.08 16.45 59.36l-321.02 2384.87c-3.14 23.29-13.95 43.08-32.43 59.38-18.5 16.28-38.8 24.43-62.07 24.43z" fill="white" fill-rule="nonzero"/><path d="M951.64 2348.67c-141.34 169.31-255.51 306.99-363.94 215.31-108.16-91.46-129.32-343.59 12.02-513.14 141.33-169.31 391.64-192.05 499.81-100.34 108.43 91.45-6.54 228.62-147.89 398.17zm377.8-170.08c232.26-24.57 498.5 6.53 758.19 100.85 593.88 215.55 929.08 679.03 749.08 1035.39-76.3 151.02-232.81 258.41-432.94 315.88 117.06 417.78 58.8 793.99-581.58 964.88 197.79-251.07 235.67-572.98 219.21-916.81-192.81.27-401.04-34.73-605.63-108.95-259.71-94.32-470.03-236.18-609.54-395.56 89.88 50.44 189.42 96.4 296.81 135.34 322.68 117.04 647.94 147.87 897.21 101.63-35.54-337.29-95.63-682.97-86.75-994.4 45.72 252.65 221.3 573.75 355.6 894.6 60.88-39.19 107.63-88.05 136.91-145.79 145.51-287.66-202.23-690.01-776.25-898.51-107.37-38.92-215.29-68.45-320.31-88.57z" fill="#acc571" fill-rule="nonzero"/></svg>