<svg xmlns="http://www.w3.org/2000/svg" viewBox="0 0 258.3 58.31"><defs><style>.cls-1,.cls-2{fill:#ed143d;}.cls-2{fill-rule:evenodd;}</style></defs><g id="Camada_2" data-name="Camada 2"><g id="Camada_1-2" data-name="Camada 1"><path class="cls-1" d="M69.53,31.24H66.21a1,1,0,0,0-.68.26,1,1,0,0,0-.35.65l-.73,5.65a1,1,0,0,1-.35.65,1,1,0,0,1-.68.26h-5.7a.75.75,0,0,1-.61-.26.81.81,0,0,1-.18-.65l3.37-26a1.05,1.05,0,0,1,.35-.64,1,1,0,0,1,.68-.27H73a9.41,9.41,0,0,1,3.9.8,8.37,8.37,0,0,1,3,2.2,9.11,9.11,0,0,1,1.78,3.27,9.4,9.4,0,0,1,.3,4,12.63,12.63,0,0,1-1.2,4,10.32,10.32,0,0,1-2.49,3.19,11.67,11.67,0,0,1-3.74,2.13,14.61,14.61,0,0,1-5,.78Zm2-13.33H68a1,1,0,0,0-.69.27,1,1,0,0,0-.34.63l-.58,4.46a.74.74,0,0,0,.18.64.79.79,0,0,0,.62.26h4.08a2.77,2.77,0,0,0,2.23-.92,3.94,3.94,0,0,0,.94-2.09,3.17,3.17,0,0,0,0-1.19,2.4,2.4,0,0,0-.5-1,2.63,2.63,0,0,0-.93-.74,3.09,3.09,0,0,0-1.38-.28Zm17.7,20.8H83.55a.76.76,0,0,1-.62-.26.75.75,0,0,1-.18-.65l3.37-26a1.08,1.08,0,0,1,1-.91H99a10.16,10.16,0,0,1,4,.74,7.78,7.78,0,0,1,2.91,2.07,8.31,8.31,0,0,1,1.64,3.15,10.28,10.28,0,0,1,.21,4,11,11,0,0,1-.59,2.41A12.81,12.81,0,0,1,106,25.58a11.53,11.53,0,0,1-1.51,1.92,8.71,8.71,0,0,1-1.81,1.42,1.18,1.18,0,0,0-.47.55.65.65,0,0,0,0,.63q1.2,1.89,2.53,3.91t2.37,3.68a.67.67,0,0,1,0,.66.54.54,0,0,1-.54.36H99.56a1.88,1.88,0,0,1-.79-.2,1.48,1.48,0,0,1-.6-.52c-.66-1.06-1.32-2.14-2-3.22s-1.3-2.19-1.94-3.31a1.43,1.43,0,0,0-.57-.51,1.6,1.6,0,0,0-.77-.21h-.83a1,1,0,0,0-.68.27,1,1,0,0,0-.35.64l-.79,6.15a1,1,0,0,1-.35.65,1,1,0,0,1-.69.26ZM93,23.76h4a2.85,2.85,0,0,0,1-.18,3.13,3.13,0,0,0,1-.53,3.44,3.44,0,0,0,.8-.89,3.19,3.19,0,0,0,.43-1.25,3.88,3.88,0,0,0,0-.89,2.58,2.58,0,0,0-.33-1,2.15,2.15,0,0,0-.76-.8,2.43,2.43,0,0,0-1.3-.32h-4a1.08,1.08,0,0,0-1,.91l-.52,4a.8.8,0,0,0,.18.64.76.76,0,0,0,.6.27Zm29.2-12a1.67,1.67,0,0,1,.59-.59,1.45,1.45,0,0,1,.81-.25h5.32a1.14,1.14,0,0,1,.71.25,1.12,1.12,0,0,1,.43.59l7.73,25.81a.76.76,0,0,1-.15.72,1,1,0,0,1-.86.38h-6.49a1.24,1.24,0,0,1-.75-.24,1.39,1.39,0,0,1-.47-.59l-.73-2.28a1.5,1.5,0,0,0-.48-.59,1.17,1.17,0,0,0-.71-.24h-8a1.58,1.58,0,0,0-.81.24,1.75,1.75,0,0,0-.59.59l-1.35,2.28a1.84,1.84,0,0,1-.59.59,1.5,1.5,0,0,1-.78.24h-6.53a1.15,1.15,0,0,1-.39-.07.72.72,0,0,1-.31-.23.74.74,0,0,1-.12-.38,1.08,1.08,0,0,1,.18-.53l14.35-25.7Zm.1,16.51h3.38a.73.73,0,0,0,.58-.24.56.56,0,0,0,.06-.59q-.25-1-.63-2.22L125,22.88c-.07-.23-.17-.34-.29-.34s-.26.11-.39.34l-2.49,4.6a.62.62,0,0,0-.08.59q.12.24.54.24Zm36.05-10.4H153a1,1,0,0,0-.68.27,1,1,0,0,0-.34.64l-2.47,19a1,1,0,0,1-.33.65,1,1,0,0,1-.7.26h-5.7a.77.77,0,0,1-.61-.26.81.81,0,0,1-.18-.65l2.47-19a.79.79,0,0,0-.17-.64.75.75,0,0,0-.63-.27h-5.39a.78.78,0,0,1-.61-.27.79.79,0,0,1-.18-.64l.67-5.17a1.08,1.08,0,0,1,1-.91h20.05a.75.75,0,0,1,.63.27.83.83,0,0,1,.16.64L159.37,17a1,1,0,0,1-.33.64,1,1,0,0,1-.7.27Zm8,20.8h-5.71a.74.74,0,0,1-.62-.26.85.85,0,0,1-.17-.65l3.37-25.93a1,1,0,0,1,.33-.64,1,1,0,0,1,.7-.27H170a.76.76,0,0,1,.61.27.79.79,0,0,1,.18.64L167.41,37.8a1,1,0,0,1-.35.65,1,1,0,0,1-.67.26ZM201,32.49l-.7,5.35a1,1,0,0,1-.35.65,1,1,0,0,1-.68.26H186.16a16.68,16.68,0,0,1-6.5-1.12,10.87,10.87,0,0,1-4.26-3,10.39,10.39,0,0,1-2.15-4.48,16.13,16.13,0,0,1-.18-5.49,15.18,15.18,0,0,1,1.82-5.51,17,17,0,0,1,3.6-4.5,17.25,17.25,0,0,1,4.87-3A14.59,14.59,0,0,1,189,10.47a12.6,12.6,0,0,1,5.35,1.12,11.7,11.7,0,0,1,6.54,7.53,13.27,13.27,0,0,1,.39,5.51,10.27,10.27,0,0,1-1.1,3.47,11.43,11.43,0,0,1-2,2.79q-.58.69.21.69h1.79a.8.8,0,0,1,.61.26.82.82,0,0,1,.18.65ZM186.3,31.35a6.46,6.46,0,0,0,2.63-.55,9,9,0,0,0,2.29-1.46,7.76,7.76,0,0,0,1.69-2.13,7.2,7.2,0,0,0,.85-2.58,6.44,6.44,0,0,0-.17-2.6,5.79,5.79,0,0,0-1.14-2.17,5.73,5.73,0,0,0-1.91-1.46,5.82,5.82,0,0,0-2.49-.53,6.74,6.74,0,0,0-2.62.53,8.12,8.12,0,0,0-4,3.63,7.36,7.36,0,0,0-.85,2.6,6.33,6.33,0,0,0,.17,2.58,5.64,5.64,0,0,0,1.15,2.13,6,6,0,0,0,1.91,1.46,5.51,5.51,0,0,0,2.48.55Zm21-19.48a1,1,0,0,1,.35-.64,1,1,0,0,1,.68-.27H214a.74.74,0,0,1,.6.27.79.79,0,0,1,.18.64l-2,15.38a5.43,5.43,0,0,0,.16,2.45,3.72,3.72,0,0,0,1,1.52,3.78,3.78,0,0,0,1.4.77,4.77,4.77,0,0,0,1.42.23,5.35,5.35,0,0,0,1.48-.23,5.08,5.08,0,0,0,1.59-.77,5.64,5.64,0,0,0,1.36-1.52,6.15,6.15,0,0,0,.79-2.45l2-15.38a1.08,1.08,0,0,1,1-.91h5.71a.74.74,0,0,1,.6.27.76.76,0,0,1,.19.64l-2,15.38a14.6,14.6,0,0,1-1.49,4.9,12.79,12.79,0,0,1-2.93,3.76,13.33,13.33,0,0,1-4.14,2.41,15,15,0,0,1-5.08.85,13.17,13.17,0,0,1-4.86-.85,9.32,9.32,0,0,1-3.51-2.41,9.18,9.18,0,0,1-2-3.76,12.54,12.54,0,0,1-.23-4.9l2-15.38Zm36.5,7-.21,1.59a.81.81,0,0,0,.18.65.78.78,0,0,0,.61.27h10.29a.74.74,0,0,1,.61.26.78.78,0,0,1,.19.65l-.69,5.24a1,1,0,0,1-.35.64,1,1,0,0,1-.68.27H243.43a1,1,0,0,0-.68.26,1,1,0,0,0-.35.65l-.19,1.44a.82.82,0,0,0,.18.65.8.8,0,0,0,.61.26h11.81a.76.76,0,0,1,.61.27.8.8,0,0,1,.18.64l-.68,5.24a1,1,0,0,1-.35.65,1,1,0,0,1-.68.26H234.57a.74.74,0,0,1-.61-.26.78.78,0,0,1-.19-.65l3.38-26a1,1,0,0,1,.35-.64,1,1,0,0,1,.68-.27H257.5a.75.75,0,0,1,.61.27.77.77,0,0,1,.19.64L257.62,17a1.05,1.05,0,0,1-1,.91h-11.8a1.08,1.08,0,0,0-1,.91Z"/><path class="cls-2" d="M39.37,4.58A24.88,24.88,0,1,1,9.09,44a24.8,24.8,0,0,1,1-39.17,25.06,25.06,0,0,1,29.27-.28ZM13.46,9.39a25.36,25.36,0,0,1,11.12,1.48c8.7,3.15,13.62,10,11,15.16-1.12,2.22-3.41,3.79-6.35,4.63,1.72,6.12.87,11.63-8.52,14.14,2.9-3.68,3.45-8.4,3.21-13.43A26.24,26.24,0,0,1,15,29.77,21.6,21.6,0,0,1,6.09,24a27.67,27.67,0,0,0,4.35,2,26.19,26.19,0,0,0,13.15,1.49c-.52-4.94-1.4-10-1.27-14.57.67,3.7,3.24,8.41,5.21,13.11a5.54,5.54,0,0,0,2-2.14c2.13-4.22-3-10.11-11.38-13.16a31.8,31.8,0,0,0-4.7-1.3Z"/><path class="cls-1" d="M76.32,54.67l-.06.29a.14.14,0,0,0,0,.11.14.14,0,0,0,.11,0h1.83a.12.12,0,0,1,.11.05.14.14,0,0,1,0,.11l-.19.94a.21.21,0,0,1-.08.11.18.18,0,0,1-.12.05H76.12a.16.16,0,0,0-.12,0,.19.19,0,0,0-.07.11l-.06.26a.14.14,0,0,0,0,.11A.12.12,0,0,0,76,57h2.11a.12.12,0,0,1,.1,0,.11.11,0,0,1,0,.11l-.2.94a.19.19,0,0,1-.07.11.17.17,0,0,1-.13,0H74.39a.1.1,0,0,1-.1,0,.11.11,0,0,1,0-.11l1-4.64a.19.19,0,0,1,.07-.11.21.21,0,0,1,.13-.05h3.44a.14.14,0,0,1,.11.05.14.14,0,0,1,0,.11l-.19.93a.19.19,0,0,1-.07.11.21.21,0,0,1-.13,0H76.51a.16.16,0,0,0-.12.05.19.19,0,0,0-.07.11Zm9.94-1.24-1,4.63a.19.19,0,0,1-.07.11.16.16,0,0,1-.12,0h-1a.12.12,0,0,1-.11,0,.14.14,0,0,1,0-.11l.46-2.18a.06.06,0,0,0,0-.08.14.14,0,0,0-.11.05l-1.52,1.84a.21.21,0,0,1-.12.05.13.13,0,0,1-.11-.05l-.75-1.84a.09.09,0,0,0-.09-.05.1.1,0,0,0-.08.08l-.45,2.18a.21.21,0,0,1-.08.11.13.13,0,0,1-.12,0h-1a.1.1,0,0,1-.1,0,.14.14,0,0,1,0-.11l1-4.63a.19.19,0,0,1,.07-.11.16.16,0,0,1,.12,0h1a.22.22,0,0,1,.13,0l.09.09.9,1.91a.09.09,0,0,0,.08.06.12.12,0,0,0,.1-.06l1.71-1.91.13-.09a.34.34,0,0,1,.15,0h1a.1.1,0,0,1,.1,0,.11.11,0,0,1,0,.11ZM94,54.51H93a.16.16,0,0,0-.12.05.19.19,0,0,0-.07.11l-.71,3.39a.26.26,0,0,1-.07.11.17.17,0,0,1-.13,0h-1a.1.1,0,0,1-.1,0,.11.11,0,0,1,0-.11l.71-3.39a.11.11,0,0,0,0-.11s0-.05-.1-.05h-1a.12.12,0,0,1-.1,0,.11.11,0,0,1,0-.11l.19-.93a.19.19,0,0,1,.07-.11.21.21,0,0,1,.13-.05h3.57a.13.13,0,0,1,.11.05.14.14,0,0,1,0,.11l-.19.93a.19.19,0,0,1-.07.11.21.21,0,0,1-.13,0Zm1.12,1.23a3.06,3.06,0,0,1,.41-1,3.45,3.45,0,0,1,1.65-1.37,2.72,2.72,0,0,1,1-.21,2.11,2.11,0,0,1,1,.21,1.94,1.94,0,0,1,.71.55,2,2,0,0,1,.38.82,2.36,2.36,0,0,1,0,1,2.9,2.9,0,0,1-.41,1,3.31,3.31,0,0,1-.73.81,3.39,3.39,0,0,1-.93.56,2.87,2.87,0,0,1-1,.2,2.24,2.24,0,0,1-1-.2,1.93,1.93,0,0,1-.7-.56,2,2,0,0,1-.37-.81,2.41,2.41,0,0,1,0-1Zm1.34,0a1.2,1.2,0,0,0,.17.9,1.12,1.12,0,0,0,.33.28,1,1,0,0,0,.45.1,1.24,1.24,0,0,0,.5-.1,2.11,2.11,0,0,0,.45-.28,1.69,1.69,0,0,0,.35-.41,1.49,1.49,0,0,0,.2-.49,1.3,1.3,0,0,0,0-.48,1.28,1.28,0,0,0-.18-.41,1,1,0,0,0-.34-.28.93.93,0,0,0-.45-.1,1.27,1.27,0,0,0-.5.1,1.83,1.83,0,0,0-.44.28,1.73,1.73,0,0,0-.35.41,1.44,1.44,0,0,0-.2.48Zm5,2.32,1-4.64a.19.19,0,0,1,.07-.11.21.21,0,0,1,.12-.05h1.85a2,2,0,0,1,1.61.62,1.7,1.7,0,0,1,.39.81,2.69,2.69,0,0,1,0,1.05,3.39,3.39,0,0,1-.41,1.06,2.78,2.78,0,0,1-.73.8,2.94,2.94,0,0,1-.87.47,3.22,3.22,0,0,1-1,.15H101.6a.1.1,0,0,1-.1,0,.11.11,0,0,1,0-.11ZM103.21,57h.5a2,2,0,0,0,.41,0,1.1,1.1,0,0,0,.4-.18,1.3,1.3,0,0,0,.35-.38,1.79,1.79,0,0,0,.23-.62,1.39,1.39,0,0,0,0-.63.76.76,0,0,0-.19-.37.67.67,0,0,0-.33-.18,1.65,1.65,0,0,0-.38,0h-.51a.18.18,0,0,0-.12,0,.21.21,0,0,0-.08.11l-.44,2.13a.16.16,0,0,0,0,.12.14.14,0,0,0,.11,0Zm4.87-1.23a2.85,2.85,0,0,1,.41-1,3.45,3.45,0,0,1,1.65-1.37,2.68,2.68,0,0,1,1-.21,2.11,2.11,0,0,1,.95.21,1.91,1.91,0,0,1,.7.55,2,2,0,0,1,.38.82,2.21,2.21,0,0,1,0,1,2.9,2.9,0,0,1-.41,1,3.49,3.49,0,0,1-.72.81,3.39,3.39,0,0,1-.93.56,2.91,2.91,0,0,1-1,.2,2.32,2.32,0,0,1-1-.2,1.9,1.9,0,0,1-.69-.56,2,2,0,0,1-.38-.81,2.25,2.25,0,0,1,0-1Zm1.34,0a1.16,1.16,0,0,0,0,.49,1,1,0,0,0,.18.41.91.91,0,0,0,.33.28.93.93,0,0,0,.45.1,1.19,1.19,0,0,0,.49-.1,2,2,0,0,0,.46-.28,2.3,2.3,0,0,0,.35-.41,1.47,1.47,0,0,0,.19-.49,1.12,1.12,0,0,0,0-.48,1,1,0,0,0-.18-.41,1.12,1.12,0,0,0-.33-.28,1,1,0,0,0-.46-.1,1.23,1.23,0,0,0-.49.1,1.71,1.71,0,0,0-.45.28,1.73,1.73,0,0,0-.35.41,1.42,1.42,0,0,0-.19.48Zm5.9.78a2.85,2.85,0,0,0,.65.37,1.68,1.68,0,0,0,.64.14,1,1,0,0,0,.47-.09.33.33,0,0,0,.21-.25.14.14,0,0,0,0-.14.48.48,0,0,0-.16-.08,1.31,1.31,0,0,0-.25-.06l-.29,0-.34-.07a2.79,2.79,0,0,1-.39-.1,2.53,2.53,0,0,1-.37-.18,1.24,1.24,0,0,1-.32-.28,1.08,1.08,0,0,1-.17-.41,1.3,1.3,0,0,1,0-.55,1.76,1.76,0,0,1,.34-.77,2,2,0,0,1,.57-.48,2.34,2.34,0,0,1,.68-.26,4.13,4.13,0,0,1,.68-.07,2.7,2.7,0,0,1,1,.17,2.56,2.56,0,0,1,.76.48.17.17,0,0,1,0,.12.27.27,0,0,1-.06.12l-.69.75a.21.21,0,0,1-.12.07.12.12,0,0,1-.12,0,2.15,2.15,0,0,0-.58-.3,1.46,1.46,0,0,0-.53-.1h-.17l-.19,0a.6.6,0,0,0-.16.08.24.24,0,0,0-.09.15c0,.06,0,.12.1.17a2.08,2.08,0,0,0,.3.13,2.37,2.37,0,0,0,.34.08l.2,0a3.94,3.94,0,0,1,.51.14,1.47,1.47,0,0,1,.49.27,1.25,1.25,0,0,1,.33.47,1.32,1.32,0,0,1,0,.72,1.85,1.85,0,0,1-.29.7,1.79,1.79,0,0,1-.5.49,2.25,2.25,0,0,1-.67.28,3.47,3.47,0,0,1-.81.09,3.16,3.16,0,0,1-.64-.06,2.84,2.84,0,0,1-.54-.16,2.63,2.63,0,0,1-.44-.24,2.57,2.57,0,0,1-.35-.29.15.15,0,0,1,0-.11.31.31,0,0,1,.06-.13l.68-.75a.21.21,0,0,1,.12-.07.16.16,0,0,1,.12,0Zm7.33-.78a2.85,2.85,0,0,1,.41-1,3.45,3.45,0,0,1,1.65-1.37,2.72,2.72,0,0,1,1-.21,2.11,2.11,0,0,1,1,.21,1.83,1.83,0,0,1,.7.55,1.88,1.88,0,0,1,.38.82,2.36,2.36,0,0,1,0,1,3.11,3.11,0,0,1-.41,1,3.53,3.53,0,0,1-.73.81,3.39,3.39,0,0,1-.93.56,2.91,2.91,0,0,1-1,.2,2.24,2.24,0,0,1-1-.2,1.85,1.85,0,0,1-.7-.56,2,2,0,0,1-.38-.81,2.41,2.41,0,0,1,0-1Zm1.34,0a1.16,1.16,0,0,0,0,.49,1,1,0,0,0,.51.69.93.93,0,0,0,.45.1,1.27,1.27,0,0,0,.5-.1,2.11,2.11,0,0,0,.45-.28,2,2,0,0,0,.35-.41,1.74,1.74,0,0,0,.2-.49,1.29,1.29,0,0,0,0-.48,1,1,0,0,0-.18-.41,1,1,0,0,0-.33-.28,1,1,0,0,0-.45-.1,1.24,1.24,0,0,0-.5.1,2.11,2.11,0,0,0-.45.28,1.69,1.69,0,0,0-.34.41,1.44,1.44,0,0,0-.2.48Zm5.9.78a3.07,3.07,0,0,0,.65.37,1.72,1.72,0,0,0,.64.14,1,1,0,0,0,.47-.09.33.33,0,0,0,.21-.25.13.13,0,0,0,0-.14.54.54,0,0,0-.17-.08,1.31,1.31,0,0,0-.25-.06l-.29,0-.33-.07a2.79,2.79,0,0,1-.39-.1A2.64,2.64,0,0,1,130,56a1.19,1.19,0,0,1-.31-.28,1,1,0,0,1-.18-.41,1.49,1.49,0,0,1,0-.55,1.88,1.88,0,0,1,.34-.77,2.14,2.14,0,0,1,.57-.48,2.34,2.34,0,0,1,.68-.26,4.25,4.25,0,0,1,.69-.07,2.68,2.68,0,0,1,1,.17,2.44,2.44,0,0,1,.76.48.17.17,0,0,1,0,.12.27.27,0,0,1-.06.12l-.69.75a.19.19,0,0,1-.12.07.13.13,0,0,1-.12,0,2.25,2.25,0,0,0-.57-.3,1.54,1.54,0,0,0-.53-.1h-.18l-.19,0a.6.6,0,0,0-.16.08.24.24,0,0,0-.09.15c0,.06,0,.12.11.17a1.57,1.57,0,0,0,.29.13,2.37,2.37,0,0,0,.34.08l.21,0a4.31,4.31,0,0,1,.5.14,1.37,1.37,0,0,1,.49.27,1.06,1.06,0,0,1,.33.47,1.23,1.23,0,0,1,0,.72,1.7,1.7,0,0,1-.29.7,1.76,1.76,0,0,1-.49.49,2.37,2.37,0,0,1-.67.28,3.47,3.47,0,0,1-.81.09,3.27,3.27,0,0,1-.65-.06,2.74,2.74,0,0,1-.53-.16,2.63,2.63,0,0,1-.44-.24,2.68,2.68,0,0,1-.36-.29.15.15,0,0,1,0-.11.31.31,0,0,1,.06-.13l.68-.75a.24.24,0,0,1,.13-.07.14.14,0,0,1,.11,0Zm13.56-3.09-1,4.63a.19.19,0,0,1-.07.11.16.16,0,0,1-.12,0h-1a.12.12,0,0,1-.11,0,.14.14,0,0,1,0-.11l.46-2.18a.06.06,0,0,0,0-.08.14.14,0,0,0-.11.05l-1.53,1.84a.17.17,0,0,1-.12.05.11.11,0,0,1-.1-.05l-.76-1.84s0-.05-.08-.05a.1.1,0,0,0-.08.08l-.45,2.18a.21.21,0,0,1-.08.11.15.15,0,0,1-.12,0h-1a.1.1,0,0,1-.1,0,.11.11,0,0,1,0-.11l1-4.63a.15.15,0,0,1,.07-.11.16.16,0,0,1,.12,0h.94a.25.25,0,0,1,.14,0l.09.09.9,1.91a.09.09,0,0,0,.08.06.12.12,0,0,0,.1-.06l1.71-1.91.13-.09a.34.34,0,0,1,.15,0h1a.1.1,0,0,1,.1,0,.11.11,0,0,1,0,.11Zm1.13,2.31a3.08,3.08,0,0,1,.42-1,3.45,3.45,0,0,1,1.65-1.37,2.67,2.67,0,0,1,1-.21,2.15,2.15,0,0,1,1,.21,1.92,1.92,0,0,1,1.08,1.37,2.21,2.21,0,0,1,0,1,2.9,2.9,0,0,1-.41,1,3.49,3.49,0,0,1-.72.81,3.44,3.44,0,0,1-.94.56,2.86,2.86,0,0,1-1,.2,2.29,2.29,0,0,1-1-.2,2,2,0,0,1-1.07-1.37,2.41,2.41,0,0,1,0-1Zm1.35,0a1.16,1.16,0,0,0,0,.49,1.15,1.15,0,0,0,.17.41,1.12,1.12,0,0,0,.33.28,1,1,0,0,0,.46.1,1.23,1.23,0,0,0,.49-.1,1.74,1.74,0,0,0,.8-.69,1.3,1.3,0,0,0,.2-.49,1.12,1.12,0,0,0,0-.48,1,1,0,0,0-.18-.41,1,1,0,0,0-.34-.28.93.93,0,0,0-.45-.1,1.19,1.19,0,0,0-.49.1,1.71,1.71,0,0,0-.45.28,1.73,1.73,0,0,0-.35.41,1.68,1.68,0,0,0-.2.48Zm11.51-2.31-1,4.63a.19.19,0,0,1-.07.11.16.16,0,0,1-.12,0h-1a.12.12,0,0,1-.11,0,.14.14,0,0,1,0-.11l.46-2.18a.06.06,0,0,0-.05-.08.14.14,0,0,0-.11.05l-1.53,1.84a.16.16,0,0,1-.11.05.13.13,0,0,1-.11-.05l-.75-1.84a.09.09,0,0,0-.09-.05.1.1,0,0,0-.08.08l-.45,2.18a.21.21,0,0,1-.08.11.13.13,0,0,1-.12,0h-1a.1.1,0,0,1-.1,0,.11.11,0,0,1,0-.11l1-4.63a.19.19,0,0,1,.07-.11.16.16,0,0,1,.12,0h1a.22.22,0,0,1,.13,0l.09.09.9,1.91a.09.09,0,0,0,.08.06.12.12,0,0,0,.1-.06l1.71-1.91.13-.09a.34.34,0,0,1,.15,0h.95a.1.1,0,0,1,.1,0,.11.11,0,0,1,0,.11Zm3.17,1.24-.06.29a.14.14,0,0,0,0,.11.12.12,0,0,0,.1,0h1.84a.1.1,0,0,1,.1.05.11.11,0,0,1,0,.11l-.2.94a.19.19,0,0,1-.07.11.21.21,0,0,1-.13.05h-1.83a.17.17,0,0,0-.13,0,.26.26,0,0,0-.07.11l-.05.26a.14.14,0,0,0,0,.11.12.12,0,0,0,.11.05h2.1a.14.14,0,0,1,.11,0,.14.14,0,0,1,0,.11l-.19.94a.21.21,0,0,1-.08.11.15.15,0,0,1-.12,0h-3.45a.12.12,0,0,1-.11,0,.14.14,0,0,1,0-.11l1-4.64a.21.21,0,0,1,.08-.11.18.18,0,0,1,.12-.05h3.45a.14.14,0,0,1,.11.05.14.14,0,0,1,0,.11l-.2.93a.15.15,0,0,1-.07.11.21.21,0,0,1-.12,0h-2.11a.15.15,0,0,0-.12.05.21.21,0,0,0-.08.11Zm9.24-1.25-1,4.64a.26.26,0,0,1-.07.11.17.17,0,0,1-.13,0h-1a.2.2,0,0,1-.13,0,.3.3,0,0,1-.1-.09l-1.24-2.49a.06.06,0,0,0-.08,0s0,0-.06.07l-.51,2.43a.19.19,0,0,1-.07.11.16.16,0,0,1-.12,0h-1a.1.1,0,0,1-.1,0,.11.11,0,0,1,0-.11l1-4.64a.15.15,0,0,1,.07-.11.21.21,0,0,1,.12-.05h1a.22.22,0,0,1,.13,0,.18.18,0,0,1,.1.09l1.24,2.49s0,0,.07,0,.05,0,.06-.07l.51-2.43a.26.26,0,0,1,.07-.11.21.21,0,0,1,.13-.05h1a.14.14,0,0,1,.11.05.14.14,0,0,1,0,.11ZM175,54.51H174a.17.17,0,0,0-.13.05.26.26,0,0,0-.07.11l-.71,3.39a.19.19,0,0,1-.07.11.15.15,0,0,1-.12,0h-1a.12.12,0,0,1-.11,0,.14.14,0,0,1,0-.11l.71-3.39a.14.14,0,0,0,0-.11s-.06-.05-.11-.05h-1a.12.12,0,0,1-.1,0,.11.11,0,0,1,0-.11l.2-.93a.19.19,0,0,1,.07-.11.21.21,0,0,1,.12-.05h3.58a.13.13,0,0,1,.11.05.14.14,0,0,1,0,.11l-.19.93a.26.26,0,0,1-.07.11.21.21,0,0,1-.13,0Zm1.12,1.23a2.85,2.85,0,0,1,.41-1,3.45,3.45,0,0,1,1.65-1.37,2.72,2.72,0,0,1,1-.21,2.11,2.11,0,0,1,1,.21,1.83,1.83,0,0,1,.7.55,1.88,1.88,0,0,1,.38.82,2.36,2.36,0,0,1,0,1,2.92,2.92,0,0,1-.42,1,3.49,3.49,0,0,1-.72.81,3.39,3.39,0,0,1-.93.56,2.91,2.91,0,0,1-1,.2,2.24,2.24,0,0,1-1-.2,1.85,1.85,0,0,1-.7-.56,2,2,0,0,1-.38-.81,2.25,2.25,0,0,1,0-1Zm1.34,0a1.16,1.16,0,0,0,0,.49,1,1,0,0,0,.18.41.91.91,0,0,0,.33.28.93.93,0,0,0,.45.1,1.27,1.27,0,0,0,.5-.1,2.11,2.11,0,0,0,.45-.28,2,2,0,0,0,.35-.41,1.74,1.74,0,0,0,.2-.49,1.29,1.29,0,0,0,0-.48,1,1,0,0,0-.18-.41,1.12,1.12,0,0,0-.33-.28,1,1,0,0,0-.45-.1,1.24,1.24,0,0,0-.5.1,2.11,2.11,0,0,0-.45.28,1.69,1.69,0,0,0-.34.41,1.26,1.26,0,0,0-.2.48Z"/><path class="cls-1" d="M183.34,56.52a2.85,2.85,0,0,0,.65.37,1.68,1.68,0,0,0,.64.14,1,1,0,0,0,.47-.09.33.33,0,0,0,.21-.25.12.12,0,0,0,0-.14.4.4,0,0,0-.16-.08,1.31,1.31,0,0,0-.25-.06l-.29,0-.34-.07a2,2,0,0,1-.38-.11,1.84,1.84,0,0,1-.38-.17,1.19,1.19,0,0,1-.31-.28,1,1,0,0,1-.18-.41,1.3,1.3,0,0,1,0-.55,1.76,1.76,0,0,1,.34-.77,2,2,0,0,1,.57-.48,2.34,2.34,0,0,1,.68-.26,4.24,4.24,0,0,1,.68-.07,2.7,2.7,0,0,1,1,.17,2.44,2.44,0,0,1,.76.48.17.17,0,0,1,0,.12.34.34,0,0,1-.06.12l-.69.75a.19.19,0,0,1-.12.07.12.12,0,0,1-.12,0,2.15,2.15,0,0,0-.58-.3,1.46,1.46,0,0,0-.53-.1h-.17l-.19,0a.6.6,0,0,0-.16.08.24.24,0,0,0-.09.15.17.17,0,0,0,.1.17,2.08,2.08,0,0,0,.3.13,2.37,2.37,0,0,0,.34.08l.21,0a4.31,4.31,0,0,1,.5.14,1.47,1.47,0,0,1,.49.27,1.06,1.06,0,0,1,.33.47,1.32,1.32,0,0,1,0,.72,1.85,1.85,0,0,1-.29.7,1.67,1.67,0,0,1-.5.49,2.19,2.19,0,0,1-.66.28,3.47,3.47,0,0,1-.81.09,3.27,3.27,0,0,1-.65-.06,2.74,2.74,0,0,1-.53-.16,2.28,2.28,0,0,1-.44-.24,2.68,2.68,0,0,1-.36-.29.15.15,0,0,1,0-.11.31.31,0,0,1,.06-.13l.68-.75a.24.24,0,0,1,.13-.07.14.14,0,0,1,.11,0Zm12.09.39a5,5,0,0,1-.55.57,3.45,3.45,0,0,1-.63.45,3.39,3.39,0,0,1-.71.28,3,3,0,0,1-.81.1,2.38,2.38,0,0,1-1-.2,2.15,2.15,0,0,1-.71-.55,1.9,1.9,0,0,1-.39-.82,2.21,2.21,0,0,1,0-1,2.9,2.9,0,0,1,.41-1,3.31,3.31,0,0,1,.73-.81,3.68,3.68,0,0,1,.94-.55,2.81,2.81,0,0,1,1.06-.2,2.71,2.71,0,0,1,.79.1,2.15,2.15,0,0,1,.59.28,1.68,1.68,0,0,1,.43.45,3.09,3.09,0,0,1,.31.57.14.14,0,0,1,0,.11.22.22,0,0,1-.1.09l-1,.38a.17.17,0,0,1-.14,0s-.07,0-.08-.08a1,1,0,0,0-.38-.48,1.09,1.09,0,0,0-.63-.16,1.17,1.17,0,0,0-.51.11,1.67,1.67,0,0,0-.46.28,2.06,2.06,0,0,0-.35.42,1.87,1.87,0,0,0-.2.49,1.34,1.34,0,0,0,0,.49,1,1,0,0,0,.17.41,1,1,0,0,0,.34.29,1,1,0,0,0,.46.11,1.47,1.47,0,0,0,.71-.18,2,2,0,0,0,.58-.46.31.31,0,0,1,.11-.09h.14l.88.38a.1.1,0,0,1,.06.09.15.15,0,0,1,0,.12ZM197,55.74a2.85,2.85,0,0,1,.41-1,3.45,3.45,0,0,1,1.65-1.37,2.72,2.72,0,0,1,1-.21,2.11,2.11,0,0,1,.95.21,1.83,1.83,0,0,1,.7.55,1.88,1.88,0,0,1,.38.82,2.36,2.36,0,0,1,0,1,3.11,3.11,0,0,1-.41,1,3.53,3.53,0,0,1-.73.81,3.39,3.39,0,0,1-.93.56,2.91,2.91,0,0,1-1,.2,2.24,2.24,0,0,1-.95-.2,1.85,1.85,0,0,1-.7-.56,2,2,0,0,1-.38-.81,2.41,2.41,0,0,1,0-1Zm1.34,0a1.16,1.16,0,0,0,0,.49,1,1,0,0,0,.51.69.93.93,0,0,0,.45.1,1.27,1.27,0,0,0,.5-.1,2.11,2.11,0,0,0,.45-.28,2,2,0,0,0,.35-.41,1.74,1.74,0,0,0,.2-.49,1.29,1.29,0,0,0,0-.48,1,1,0,0,0-.18-.41,1,1,0,0,0-.33-.28,1,1,0,0,0-.45-.1,1.24,1.24,0,0,0-.5.1,2.11,2.11,0,0,0-.45.28,1.69,1.69,0,0,0-.34.41,1.44,1.44,0,0,0-.2.48Zm11.52-2.31-1,4.63a.26.26,0,0,1-.07.11.17.17,0,0,1-.13,0h-1a.1.1,0,0,1-.1,0,.11.11,0,0,1,0-.11l.45-2.18c0-.05,0-.07,0-.08a.13.13,0,0,0-.11.05l-1.53,1.84a.17.17,0,0,1-.12.05.11.11,0,0,1-.1-.05l-.76-1.84s0-.05-.08-.05a.09.09,0,0,0-.08.08l-.46,2.18a.19.19,0,0,1-.07.11.16.16,0,0,1-.12,0h-1a.12.12,0,0,1-.11,0,.14.14,0,0,1,0-.11l1-4.63a.19.19,0,0,1,.07-.11.17.17,0,0,1,.13,0h.94a.2.2,0,0,1,.13,0,.19.19,0,0,1,.09.09l.91,1.91a.08.08,0,0,0,.08.06.14.14,0,0,0,.1-.06l1.7-1.91.14-.09a.28.28,0,0,1,.15,0h.94a.12.12,0,0,1,.11,0,.14.14,0,0,1,0,.11Zm5.09,4.64-1.08-4.61a.17.17,0,0,1,0-.14.15.15,0,0,1,.13-.06h1.1a.21.21,0,0,1,.13.05.18.18,0,0,1,.07.1l.63,2.72a.07.07,0,0,0,.07.06.12.12,0,0,0,.1-.06l1.76-2.72a.29.29,0,0,1,.12-.1.27.27,0,0,1,.14-.05h1.12a.09.09,0,0,1,.1.06.09.09,0,0,1,0,.11l-3,4.64a.43.43,0,0,1-.12.11.25.25,0,0,1-.14,0h-.9a.17.17,0,0,1-.12,0,.28.28,0,0,1-.08-.11Zm4.91-2.33a3.06,3.06,0,0,1,.41-1,3.82,3.82,0,0,1,.72-.82,3.36,3.36,0,0,1,.93-.55,2.72,2.72,0,0,1,1-.21,2.18,2.18,0,0,1,1,.21A1.92,1.92,0,0,1,225,54.75a2.36,2.36,0,0,1,0,1,2.9,2.9,0,0,1-.41,1,3.49,3.49,0,0,1-.72.81,3.6,3.6,0,0,1-.94.56,2.87,2.87,0,0,1-1,.2,2.24,2.24,0,0,1-1-.2,1.93,1.93,0,0,1-1.07-1.37,2.41,2.41,0,0,1,0-1Zm1.34,0a1.2,1.2,0,0,0,.17.9,1.12,1.12,0,0,0,.33.28,1,1,0,0,0,.45.1,1.24,1.24,0,0,0,.5-.1,1.89,1.89,0,0,0,.45-.28,1.69,1.69,0,0,0,.35-.41,1.49,1.49,0,0,0,.2-.49,1.3,1.3,0,0,0,0-.48,1,1,0,0,0-.18-.41,1,1,0,0,0-.34-.28.93.93,0,0,0-.45-.1,1.27,1.27,0,0,0-.5.1,1.83,1.83,0,0,0-.44.28,1.73,1.73,0,0,0-.35.41,1.44,1.44,0,0,0-.2.48Zm10.05,1.17a5,5,0,0,1-.55.57,3.45,3.45,0,0,1-.63.45,3.39,3.39,0,0,1-.71.28,3,3,0,0,1-.81.1,2.38,2.38,0,0,1-1-.2,2.15,2.15,0,0,1-.71-.55,1.9,1.9,0,0,1-.39-.82,2.21,2.21,0,0,1,0-1,2.9,2.9,0,0,1,.41-1,3.31,3.31,0,0,1,.73-.81,3.68,3.68,0,0,1,.94-.55,2.81,2.81,0,0,1,1.06-.2,2.71,2.71,0,0,1,.79.1,2.15,2.15,0,0,1,.59.28,1.68,1.68,0,0,1,.43.45,3.09,3.09,0,0,1,.31.57.11.11,0,0,1,0,.11.22.22,0,0,1-.1.09l-1,.38a.17.17,0,0,1-.14,0s-.07,0-.08-.08a1,1,0,0,0-.38-.48,1.09,1.09,0,0,0-.63-.16,1.17,1.17,0,0,0-.51.11,1.67,1.67,0,0,0-.46.28,2.06,2.06,0,0,0-.35.42,1.87,1.87,0,0,0-.2.49,1.34,1.34,0,0,0,0,.49,1,1,0,0,0,.17.41,1,1,0,0,0,.34.29,1,1,0,0,0,.46.11,1.47,1.47,0,0,0,.71-.18,2,2,0,0,0,.58-.46.31.31,0,0,1,.11-.09h.14l.88.38a.1.1,0,0,1,.06.09.12.12,0,0,1,0,.12Zm3.34-2.24-.06.29a.11.11,0,0,0,0,.11.12.12,0,0,0,.1,0h1.84a.12.12,0,0,1,.11.05.14.14,0,0,1,0,.11l-.2.94a.19.19,0,0,1-.07.11.21.21,0,0,1-.12.05h-1.84a.17.17,0,0,0-.13,0,.26.26,0,0,0-.07.11l-.05.26a.14.14,0,0,0,0,.11.12.12,0,0,0,.11.05h2.1a.14.14,0,0,1,.11,0,.14.14,0,0,1,0,.11l-.19.94a.21.21,0,0,1-.08.11.15.15,0,0,1-.12,0h-3.45a.1.1,0,0,1-.1,0,.11.11,0,0,1,0-.11l1-4.64a.15.15,0,0,1,.07-.11.18.18,0,0,1,.12-.05h3.45a.14.14,0,0,1,.11.05.14.14,0,0,1,0,.11l-.19.93a.21.21,0,0,1-.08.11.18.18,0,0,1-.12,0h-2.11a.15.15,0,0,0-.12.05.21.21,0,0,0-.08.11Zm.82-3H236a.22.22,0,0,1,.13,0,.18.18,0,0,1,.1.09l.7,1.16a.1.1,0,0,1,0,.09.11.11,0,0,1-.1,0h-1a.22.22,0,0,1-.13,0,.18.18,0,0,1-.1-.09l-.09-.14s-.05-.05-.1-.05a.15.15,0,0,0-.11.06l-.14.14a.3.3,0,0,1-.13.09.34.34,0,0,1-.15,0h-1s-.07,0-.07,0,0-.05,0-.09l1.17-1.17a.52.52,0,0,1,.29-.13Z"/></g></g></svg>