<svg width="21" height="22" viewBox="0 0 21 22" fill="none" xmlns="http://www.w3.org/2000/svg">
<path d="M0.600008 1.09998C0.975063 0.725035 1.48368 0.514404 2.01401 0.514404C2.54434 0.514404 3.05295 0.725035 3.42801 1.09998L10.5 8.17198L17.572 1.09998C17.9492 0.735661 18.4544 0.534072 18.9788 0.538629C19.5032 0.543186 20.0048 0.753524 20.3756 1.12434C20.7465 1.49516 20.9568 1.99678 20.9614 2.52117C20.9659 3.04557 20.7643 3.55077 20.4 3.92798L13.328 11L20.4 18.072C20.7643 18.4492 20.9659 18.9544 20.9614 19.4788C20.9568 20.0032 20.7465 20.5048 20.3756 20.8756C20.0048 21.2464 19.5032 21.4568 18.9788 21.4613C18.4544 21.4659 17.9492 21.2643 17.572 20.9L10.5 13.828L3.42801 20.9C3.0508 21.2643 2.5456 21.4659 2.02121 21.4613C1.49681 21.4568 0.995187 21.2464 0.624371 20.8756C0.253554 20.5048 0.0432164 20.0032 0.0386596 19.4788C0.0341027 18.9544 0.235691 18.4492 0.600008 18.072L7.67201 11L0.600008 3.92798C0.225065 3.55292 0.0144348 3.04431 0.0144348 2.51398C0.0144348 1.98365 0.225065 1.47503 0.600008 1.09998Z" fill="#F13553"/>
</svg>
