<svg width="26" height="26" viewBox="0 0 26 26" fill="none" xmlns="http://www.w3.org/2000/svg">
<path d="M10.7151 10.1136L10.2531 10.3048L10.7151 10.1136C10.592 9.81622 10.4116 9.546 10.1841 9.31835C9.95661 9.09071 9.68651 8.91011 9.38923 8.78686C9.09194 8.6636 8.77329 8.60011 8.45147 8.6C8.12964 8.59989 7.81095 8.66317 7.51358 8.78623L7.70477 9.24823L7.51358 8.78623C7.21621 8.90929 6.946 9.08971 6.71836 9.3172C6.25862 9.77663 6.00022 10.3999 6 11.0498C5.99978 11.6998 6.25777 12.3232 6.7172 12.7829C7.17663 13.2427 7.79988 13.5011 8.44983 13.5013C9.09979 13.5015 9.7232 13.2435 10.1829 12.7841C10.6427 12.3247 10.9011 11.7014 10.9013 11.0515C10.9014 10.7296 10.8381 10.4109 10.7151 10.1136ZM7.32566 19.3419L7.10629 20H7.8H18.2H18.8937L18.6743 19.3419L18.2 19.5C18.6743 19.3419 18.6743 19.3417 18.6742 19.3414L18.674 19.3409L18.6735 19.3395L18.6722 19.3357L18.6682 19.3239C18.6648 19.3142 18.66 19.3008 18.6539 19.2841C18.6416 19.2506 18.6238 19.2036 18.6 19.1448C18.5525 19.0275 18.4811 18.863 18.3832 18.667C18.1878 18.2762 17.8834 17.7541 17.4466 17.2299C16.5699 16.1778 15.1405 15.1 13 15.1C10.8595 15.1 9.43011 16.1778 8.55339 17.2299C8.11657 17.7541 7.81224 18.2762 7.61685 18.667C7.51887 18.863 7.44751 19.0275 7.4 19.1448C7.37623 19.2036 7.35838 19.2506 7.34611 19.2841C7.33998 19.3008 7.33523 19.3142 7.33184 19.3239L7.32775 19.3357L7.32646 19.3395L7.326 19.3409L7.32581 19.3414C7.32573 19.3417 7.32566 19.3419 7.8 19.5L7.32566 19.3419ZM15.2408 11.9886L15.7015 11.7945L15.2408 11.9886C15.3674 12.2891 15.5529 12.5611 15.7863 12.7888C16.0197 13.0164 16.2964 13.1949 16.5999 13.3139C16.9035 13.4329 17.2277 13.49 17.5537 13.4816C18.1902 13.4654 18.7953 13.2011 19.2398 12.7452L18.8818 12.3962L19.2398 12.7452C19.6844 12.2893 19.9333 11.6778 19.9335 11.0411C19.9337 10.4043 19.6852 9.7926 19.241 9.3364C18.7967 8.8802 18.1919 8.61556 17.5553 8.59887C17.2294 8.59033 16.9051 8.64713 16.6014 8.76593C16.2978 8.88473 16.0211 9.06311 15.7875 9.29057C15.5539 9.51803 15.3682 9.78996 15.2414 10.0903C15.1146 10.3907 15.0492 10.7134 15.0491 11.0394C15.049 11.3654 15.1142 11.6882 15.2408 11.9886ZM0.5 13C0.5 6.10794 6.10794 0.5 13 0.5C19.8921 0.5 25.5 6.10794 25.5 13C25.5 19.8921 19.8921 25.5 13 25.5C6.10794 25.5 0.5 19.8921 0.5 13Z" fill="#B8B8B8" stroke="#B8B8B8"/>
</svg>
