<svg width="26" height="26" viewBox="0 0 26 26" fill="none" xmlns="http://www.w3.org/2000/svg">
<path d="M13 0C5.8318 0 0 5.8318 0 13C0 20.1682 5.8318 26 13 26C20.1682 26 26 20.1682 26 13C26 5.8318 20.1682 0 13 0ZM17.5409 9.1C17.8001 9.09338 18.058 9.13873 18.2994 9.23336C18.5408 9.328 18.7608 9.47001 18.9464 9.65103C19.1321 9.83204 19.2796 10.0484 19.3803 10.2873C19.4809 10.5263 19.5328 10.7829 19.5327 11.0422C19.5326 11.3015 19.4806 11.5581 19.3798 11.797C19.2789 12.0359 19.1312 12.2521 18.9455 12.433C18.7597 12.6139 18.5396 12.7558 18.2982 12.8502C18.0567 12.9447 17.7988 12.9899 17.5396 12.9831C17.0334 12.9698 16.5523 12.7594 16.199 12.3966C15.8457 12.0338 15.6481 11.5473 15.6483 11.0409C15.6485 10.5345 15.8464 10.0482 16.2 9.68564C16.5535 9.32307 17.0347 9.11293 17.5409 9.1ZM8.45 9.1C8.70616 9.10009 8.9598 9.15063 9.19643 9.24873C9.43306 9.34684 9.64805 9.4906 9.82913 9.67179C10.0102 9.85299 10.1538 10.0681 10.2518 10.3048C10.3497 10.5415 10.4001 10.7951 10.4 11.0513C10.3999 11.3075 10.3494 11.5611 10.2513 11.7977C10.1532 12.0344 10.0094 12.2494 9.82821 12.4304C9.64701 12.6115 9.43193 12.7551 9.19523 12.8531C8.95853 12.951 8.70486 13.0014 8.4487 13.0013C7.93135 13.0011 7.43527 12.7954 7.06957 12.4295C6.70388 12.0636 6.49853 11.5673 6.4987 11.05C6.49887 10.5327 6.70455 10.0366 7.07049 9.67087C7.43643 9.30518 7.93266 9.09983 8.45 9.1ZM13 20.8C7.8 20.8 6.5 15.6 6.5 15.6H19.5C19.5 15.6 18.2 20.8 13 20.8Z" fill="#B8B8B8"/>
</svg>
