<svg width="16" height="19" viewBox="0 0 16 19" fill="none" xmlns="http://www.w3.org/2000/svg">
<path d="M7.568 18.24C6.048 18.24 4.744 17.992 3.656 17.496C2.584 17 1.744 16.272 1.136 15.312C0.544 14.352 0.216 13.16 0.152 11.736C0.136 11.08 0.128 10.376 0.128 9.624C0.128 8.872 0.136 8.152 0.152 7.464C0.216 6.072 0.552 4.896 1.16 3.936C1.768 2.96 2.616 2.224 3.704 1.728C4.792 1.216 6.08 0.959999 7.568 0.959999C8.624 0.959999 9.6 1.096 10.496 1.368C11.392 1.624 12.176 2.008 12.848 2.52C13.52 3.016 14.04 3.624 14.408 4.344C14.792 5.048 14.992 5.848 15.008 6.744C15.024 6.888 14.976 7.008 14.864 7.104C14.768 7.2 14.648 7.248 14.504 7.248H11.264C11.056 7.248 10.896 7.208 10.784 7.128C10.672 7.032 10.576 6.864 10.496 6.624C10.272 5.776 9.904 5.2 9.392 4.896C8.896 4.576 8.28 4.416 7.544 4.416C6.664 4.416 5.968 4.664 5.456 5.16C4.944 5.64 4.664 6.448 4.616 7.584C4.568 8.896 4.568 10.24 4.616 11.616C4.664 12.752 4.944 13.568 5.456 14.064C5.968 14.544 6.664 14.784 7.544 14.784C8.28 14.784 8.904 14.624 9.416 14.304C9.928 13.984 10.288 13.408 10.496 12.576C10.56 12.336 10.648 12.176 10.76 12.096C10.888 12 11.056 11.952 11.264 11.952H14.504C14.648 11.952 14.768 12 14.864 12.096C14.976 12.192 15.024 12.312 15.008 12.456C14.992 13.352 14.792 14.16 14.408 14.88C14.04 15.584 13.52 16.192 12.848 16.704C12.176 17.2 11.392 17.584 10.496 17.856C9.6 18.112 8.624 18.24 7.568 18.24Z" fill="#F13553"/>
</svg>
