<svg width="17" height="17" viewBox="0 0 17 17" fill="none" xmlns="http://www.w3.org/2000/svg">
<path d="M0.72 17C0.592 17 0.472 16.952 0.36 16.856C0.264 16.744 0.216 16.624 0.216 16.496C0.216 16.416 0.224 16.344 0.24 16.28L5.88 0.871999C5.928 0.695999 6.024 0.543999 6.168 0.415999C6.328 0.271999 6.544 0.199999 6.816 0.199999H10.368C10.64 0.199999 10.848 0.271999 10.992 0.415999C11.152 0.543999 11.256 0.695999 11.304 0.871999L16.92 16.28C16.952 16.344 16.968 16.416 16.968 16.496C16.968 16.624 16.912 16.744 16.8 16.856C16.704 16.952 16.584 17 16.44 17H13.488C13.248 17 13.064 16.944 12.936 16.832C12.824 16.704 12.752 16.592 12.72 16.496L11.784 14.048H5.376L4.464 16.496C4.432 16.592 4.36 16.704 4.248 16.832C4.136 16.944 3.944 17 3.672 17H0.72ZM6.36 10.592H10.824L8.568 4.256L6.36 10.592Z" fill="#F13553"/>
</svg>
