<svg width="15" height="17" viewBox="0 0 15 17" fill="none" xmlns="http://www.w3.org/2000/svg">
<path d="M1.28 17C1.104 17 0.96 16.944 0.848 16.832C0.736 16.72 0.68 16.576 0.68 16.4V0.8C0.68 0.623999 0.736 0.479999 0.848 0.368C0.96 0.255999 1.104 0.199999 1.28 0.199999H8.6C9.976 0.199999 11.104 0.391999 11.984 0.775999C12.864 1.16 13.512 1.712 13.928 2.432C14.36 3.136 14.576 3.976 14.576 4.952C14.576 5.528 14.464 6.04 14.24 6.488C14.032 6.92 13.768 7.28 13.448 7.568C13.144 7.856 12.856 8.064 12.584 8.192C13.192 8.48 13.728 8.952 14.192 9.608C14.672 10.264 14.912 11.032 14.912 11.912C14.912 12.968 14.672 13.88 14.192 14.648C13.728 15.4 13.04 15.984 12.128 16.4C11.232 16.8 10.128 17 8.816 17H1.28ZM4.976 13.88H8.336C9.024 13.88 9.544 13.68 9.896 13.28C10.248 12.88 10.424 12.424 10.424 11.912C10.424 11.352 10.24 10.88 9.872 10.496C9.52 10.112 9.008 9.92 8.336 9.92H4.976V13.88ZM4.976 6.872H8.12C8.776 6.872 9.264 6.704 9.584 6.368C9.92 6.032 10.088 5.6 10.088 5.072C10.088 4.56 9.92 4.144 9.584 3.824C9.264 3.488 8.776 3.32 8.12 3.32H4.976V6.872Z" fill="#F13553"/>
</svg>
